<svg xmlns="http://www.w3.org/2000/svg" viewBox="0 0 198.625 198.625"><defs><style>.cls-1{fill:#a12120;}.cls-2{fill:#591620;}.cls-3{fill:#ffbb29;}</style></defs><title>rounded-reddit</title><g id="Layer_12" data-name="Layer 12"><rect class="cls-1" width="198.625" height="198.625" rx="12" ry="12"/></g><g id="Layer_13" data-name="Layer 13"><rect class="cls-2" x="17.625" y="19.792" width="163.361" height="163.361" rx="12" ry="12"/></g><g id="Layer_7" data-name="Layer 7"><path id="reddit" class="cls-3" d="M1527.914,1502.077a7.436,7.436,0,0,1,.506,2.72,8.666,8.666,0,0,1-1.7,5.078,8.074,8.074,0,0,1-4.3,3.048h0a.247.247,0,0,0-.037.012c-.007,0-.019.006-.025.006a7.717,7.717,0,0,1-2.5.412,8.879,8.879,0,0,1-5.423-1.91,8.154,8.154,0,0,1-3.045-4.966h0a.064.064,0,0,0,0-.022.03.03,0,0,0-.006-.02h.006a7.431,7.431,0,0,1-.173-1.573,8.477,8.477,0,0,1,1.6-4.873,8.367,8.367,0,0,1,4.026-3.075l.012,0c.008,0,.008-.008.016-.008a8.3,8.3,0,0,1,2.87-.514,8.959,8.959,0,0,1,4.958,1.511,8.04,8.04,0,0,1,3.206,4.119c.006.012.006.022.012.032a.044.044,0,0,0,.012.026h-.008Zm-5.388,21.713a4.288,4.288,0,0,0-2.334-.718,3.654,3.654,0,0,0-2.02.613h0a39.231,39.231,0,0,1-19.915,5.5,34.219,34.219,0,0,1-15.1-3.409l-.024-.012-.024-.009a16.418,16.418,0,0,1-2.4-1.492,8.738,8.738,0,0,0-1.433-.79,4.308,4.308,0,0,0-1.688-.37,3.761,3.761,0,0,0-1.553.349l-.079.031h0a3.761,3.761,0,0,0-1.872,1.565,4.529,4.529,0,0,0-.111,4.449,3.812,3.812,0,0,0,1.547,1.547,40.064,40.064,0,0,0,22.561,6.574,49.208,49.208,0,0,0,20.768-4.673l.034-.02.032-.018c.845-.5,1.969-.949,3.028-1.6a6.68,6.68,0,0,0,1.474-1.221,4.609,4.609,0,0,0,.99-1.841v0a3.746,3.746,0,0,0,.123-.948,3.861,3.861,0,0,0-.389-1.667A4.491,4.491,0,0,0,1522.526,1523.791Zm-47.15-10.893a.091.091,0,0,1,.04.012,7.616,7.616,0,0,0,2.615.468,8.9,8.9,0,0,0,5.908-2.35,7.975,7.975,0,0,0,2.7-5.884c0-.061,0-.123,0-.2.006-.105.009-.221.009-.339a8.037,8.037,0,0,0-2.671-5.88,8.794,8.794,0,0,0-5.9-2.366,7.787,7.787,0,0,0-1.764.2c-.009,0-.015,0-.024,0h-.009a8.573,8.573,0,0,0-6.384,5.719h0v0l0,.012a7.827,7.827,0,0,0-.4,2.474,8.738,8.738,0,0,0,1.633,5.034,8.09,8.09,0,0,0,4.214,3.077A.074.074,0,0,1,1475.376,1512.9Zm90.93-21.152v.012c.021.295.026.589.026.881a16.645,16.645,0,0,1-2.8,9.093,18.291,18.291,0,0,1-6.488,6.01,30.973,30.973,0,0,1,.263,3.925,32.494,32.494,0,0,1-6.666,19.533v0h-.009c-7.825,10.409-19.841,16.548-31.975,19.644h0l-.008.007a84.111,84.111,0,0,1-19.813,2.374,78.365,78.365,0,0,1-29.15-5.511l0-.009h-.009c-9.612-3.962-18.771-10.26-24.387-19.487a31.755,31.755,0,0,1-4.68-16.5,29.4,29.4,0,0,1,.264-3.929,18.832,18.832,0,0,1-6.348-5.856,17.246,17.246,0,0,1-2.977-8.833v-.05a17.315,17.315,0,0,1,4.987-11.887,16.334,16.334,0,0,1,11.619-5.188h.184c.466-.032.936-.05,1.406-.05a18.371,18.371,0,0,1,6.593,1.176l.012.009.012,0a22.017,22.017,0,0,1,5.222,2.961,15.7,15.7,0,0,1,1.725-.823c9.735-5.765,21.05-7.988,32.077-8.63.1-5.463.767-11.181,3.431-16.186a16.835,16.835,0,0,1,10.655-8.517l.019-.009.025,0a27.668,27.668,0,0,1,5.257-.494,36.778,36.778,0,0,1,13.573,2.826,16.831,16.831,0,0,1,7.825-6.385l.031-.018.031-.012a19.733,19.733,0,0,1,5.843-.926,15.122,15.122,0,0,1,6.191,1.268v-.007c0,.007.006.007.006.007a.165.165,0,0,0,.036.014,15,15,0,0,1,6.946,5.625,15.533,15.533,0,0,1,2.709,8.649,14.814,14.814,0,0,1-.1,1.72l-.006.012a.1.1,0,0,1,0,.03,15.061,15.061,0,0,1-5.245,10.048,16.146,16.146,0,0,1-10.5,4.045,14.076,14.076,0,0,1-1.861-.117,15.594,15.594,0,0,1-9.993-4.887,15.09,15.09,0,0,1-4.315-10.367c0-.191.018-.388.023-.578-3.584-1.6-7.389-2.919-11.171-2.916a16.262,16.262,0,0,0-1.641.086h-.006a8.554,8.554,0,0,0-6.74,4.625v.012c-1.936,3.771-2.322,8.18-2.381,12.555,10.855.708,21.775,3.313,31.352,8.818h.015l.137.081c.181.107.518.292.822.454a18.227,18.227,0,0,1,2.149-1.556,17.671,17.671,0,0,1,9.785-2.9,18.3,18.3,0,0,1,4.538.575h.006l.061.018a.458.458,0,0,0,.056.01v0a18.128,18.128,0,0,1,9.062,5.618,17.254,17.254,0,0,1,4.3,9.891v.008h0Zm-31.975-35.525c0,.147,0,.3.018.451v.026a7.285,7.285,0,0,0,2.314,4.938,7.4,7.4,0,0,0,5,2.107h.05c.132.01.266.01.395.01a7.511,7.511,0,0,0,5.061-2.086,7.274,7.274,0,0,0,2.364-4.967l0-.009v-.012c.012-.145.018-.283.018-.432a7.334,7.334,0,0,0-2.349-5.206,7.7,7.7,0,0,0-5.244-2.231,6.075,6.075,0,0,0-1.811.268l-.02,0-.018.007a7.99,7.99,0,0,0-4.078,2.648A7.069,7.069,0,0,0,1534.332,1456.22Zm-80.129,29.1a10.593,10.593,0,0,0-4.434-1.152,6.971,6.971,0,0,0-.749.042h-.034l-.034,0a9.252,9.252,0,0,0-5.892,2.475,8.194,8.194,0,0,0-2.764,5.693v.02l0,.018c-.014.179-.02.356-.02.527a7.618,7.618,0,0,0,1.126,3.876,10.5,10.5,0,0,0,1.989,2.413A41.475,41.475,0,0,1,1454.2,1485.316Zm94.564,26.655a23.759,23.759,0,0,0-4.59-13.665c-5.657-7.872-14.433-13.006-23.562-15.868l-.064-.023q-2.629-.806-5.307-1.421a73.859,73.859,0,0,0-37.97,1.433c-9.127,2.9-17.932,7.994-23.577,15.892v.006a23.686,23.686,0,0,0-4.536,13.715,20.333,20.333,0,0,0,.7,5.335l.006,0a26.508,26.508,0,0,0,5.637,10.465,40.389,40.389,0,0,0,9.143,7.784c.743.461,1.489.9,2.252,1.328,9.744,5.439,20.965,7.823,32.1,7.823,1.884,0,3.779-.067,5.651-.2,11.218-.927,22.483-4.238,31.589-11l0-.007a35.507,35.507,0,0,0,7.708-7.686,24.89,24.89,0,0,0,4.388-9.835v-.01l0,0A19.52,19.52,0,0,0,1548.767,1511.972Zm8.854-19.331a7.234,7.234,0,0,0-.863-3.447l-.015-.014-.006-.018a8.434,8.434,0,0,0-3.525-3.692,10.422,10.422,0,0,0-9.565-.212,42.253,42.253,0,0,1,10.889,13.988,9.117,9.117,0,0,0,2.026-2.533A8.7,8.7,0,0,0,1557.622,1492.641Z" transform="translate(-1400.625 -1397.333)"/></g></svg>