<svg xmlns="http://www.w3.org/2000/svg" viewBox="0 0 198.625 198.625"><defs><style>.cls-1{fill:#a12120;}.cls-2{fill:#591620;}.cls-3{fill:#ffbb29;}</style></defs><title>rounded-twitter</title><g id="Layer_12" data-name="Layer 12"><rect class="cls-1" width="198.625" height="198.625" rx="12" ry="12"/></g><g id="Layer_13" data-name="Layer 13"><rect class="cls-2" x="17.625" y="19.792" width="163.361" height="163.361" rx="12" ry="12"/></g><g id="Layer_4" data-name="Layer 4"><path class="cls-3" d="M1558.068,1464.11a47.423,47.423,0,0,1-13.636,3.74,23.846,23.846,0,0,0,10.438-13.129,47.874,47.874,0,0,1-15.09,5.765,23.765,23.765,0,0,0-40.465,21.65,67.419,67.419,0,0,1-48.943-24.812,23.775,23.775,0,0,0,7.349,31.7,23.749,23.749,0,0,1-10.756-2.98v.3a23.771,23.771,0,0,0,19.046,23.285,24.053,24.053,0,0,1-6.257.832,22.793,22.793,0,0,1-4.47-.441,23.76,23.76,0,0,0,22.179,16.493,47.645,47.645,0,0,1-29.492,10.149,50.468,50.468,0,0,1-5.664-.326,67.125,67.125,0,0,0,36.4,10.684c43.684,0,67.562-36.183,67.562-67.562l-.08-3.074A47.421,47.421,0,0,0,1558.068,1464.11Z" transform="translate(-1400.625 -1397.333)"/></g></svg>