<svg xmlns="http://www.w3.org/2000/svg" viewBox="0 0 198.625 198.625"><defs><style>.cls-1{fill:#a12120;}.cls-2{fill:#591620;}.cls-3{fill:#ffbb29;}</style></defs><title>bs-insta</title><g id="Layer_2" data-name="Layer 2"><circle class="cls-1" cx="99.312" cy="99.312" r="99.312"/></g><g id="Layer_3" data-name="Layer 3"><circle class="cls-2" cx="99.312" cy="101.063" r="81.687"/></g><g id="Layer_6" data-name="Layer 6"><path class="cls-3" d="M1527.582,1438.3h-55.29a34.091,34.091,0,0,0-34.052,34.053v55.29a34.091,34.091,0,0,0,34.052,34.053h55.29a34.092,34.092,0,0,0,34.053-34.053v-55.29A34.091,34.091,0,0,0,1527.582,1438.3Zm23.106,89.343a23.131,23.131,0,0,1-23.105,23.1h-55.291a23.13,23.13,0,0,1-23.1-23.1v-55.29a23.131,23.131,0,0,1,23.1-23.1h55.29a23.131,23.131,0,0,1,23.105,23.1v55.29Z" transform="translate(-1400.625 -1397.75)"/><path class="cls-3" d="M1499.938,1468.206a31.8,31.8,0,1,0,31.8,31.8A31.832,31.832,0,0,0,1499.938,1468.206Zm0,52.641A20.847,20.847,0,1,1,1520.785,1500,20.871,20.871,0,0,1,1499.938,1520.847Z" transform="translate(-1400.625 -1397.75)"/><path class="cls-3" d="M1533.067,1458.922a8.024,8.024,0,1,0,5.678,2.35A8.06,8.06,0,0,0,1533.067,1458.922Z" transform="translate(-1400.625 -1397.75)"/></g></svg>