<svg xmlns="http://www.w3.org/2000/svg" viewBox="0 0 198.625 198.625"><defs><style>.cls-1{fill:#a12120;}.cls-2{fill:#591620;}.cls-3{fill:#ffbb29;}</style></defs><title>bs-yt</title><g id="Layer_2" data-name="Layer 2"><circle class="cls-1" cx="99.312" cy="99.312" r="99.312"/></g><g id="Layer_3" data-name="Layer 3"><circle class="cls-2" cx="99.312" cy="101.063" r="81.687"/></g><g id="Layer_9" data-name="Layer 9"><path class="cls-3" d="M1553.106,1473.661s-1.123-8.05-4.306-11.607c-4.119-4.68-8.8-4.68-10.858-4.868-15.164-1.123-38-1.31-38-1.31s-22.84.187-38,1.31a15.127,15.127,0,0,0-10.858,4.868c-3.37,3.557-4.306,11.607-4.306,11.607a187.287,187.287,0,0,0-1.123,19.1v8.8a181.272,181.272,0,0,0,1.123,18.909s1.123,8.05,4.306,11.607c4.119,4.68,9.548,4.493,11.982,5.055,8.612.936,36.881,1.123,36.881,1.123s22.84,0,38-1.31a15.127,15.127,0,0,0,10.858-4.868c3.183-3.557,4.306-11.607,4.306-11.607a186.088,186.088,0,0,0,1.123-18.909v-8.8A187.286,187.286,0,0,0,1553.106,1473.661Zm-66.273,45.118v-40.625h0l35.57,20.781Z" transform="translate(-1400.625 -1397.75)"/></g></svg>