<svg xmlns="http://www.w3.org/2000/svg" viewBox="0 0 305.81 350.671"><defs><style>.cls-1{fill:#1b000a;}.cls-2{fill:#fff;}.cls-3{fill:#ffba21;}.cls-4{fill:#ffe35a;}.cls-5{fill:#c7603f;}.cls-6{fill:#a22519;}.cls-7{fill:#5f2020;}.cls-8{fill:#ffbf20;}.cls-9{fill:#57171f;}</style></defs><title>brawlstars2</title><g id="Layer_20" data-name="Layer 20"><path class="cls-1" d="M1500,1324.417l-6,1.667L1433.917,1389l-79.333,19.25s-10.917,2.75-5.667,19.25,21.25,72.083,21.25,72.083S1370,1510.083,1366,1517l-18.25,61.667s-5.417,13.027,24,17.639l64.167,15.861,55.083,57.5s9.917,15.5,24.833-5.917l48.417-51.667,81.417-20s11.167-3.167,6.25-17.833l-22.083-74.5,22.25-76.669s6.917-15-17.083-18.917L1563.833,1388l-57.917-61.917Z" transform="translate(-1347.358 -1324.417)"/></g><g id="Layer_2" data-name="Layer 2"><path class="cls-2" d="M1500,1335l-59.5,62.5-83.167,20.5L1413,1450s22.667-50,87-51.667" transform="translate(-1347.358 -1324.417)"/></g><g id="Layer_6" data-name="Layer 6"><path class="cls-3" d="M1641.667,1581.833l-52-31.167s13.583-23.417,11.083-46.667,0-31.75-13-54l55-32-24.25,82Z" transform="translate(-1347.358 -1324.417)"/></g><g id="Layer_3" data-name="Layer 3"><path class="cls-4" d="M1357.333,1418l55.732,32.052s-13.683,17.7-13.516,46.743,17.687,57.928,23.861,63.437,28.033,34.389,76.757,36.059,80.261-36.56,88.937-54.088a107.383,107.383,0,0,0,11.347-39.732s1.835,17.7-1,23.538c0,0-2,9.015-9.511,24.874-4.3,9.082-15.768,25.007-34.719,37.21a105.294,105.294,0,0,1-55.053,16.711c-52.9,1.336-88.937-44.962-88.6-53.421L1358,1582.6l23.528-83.136Z" transform="translate(-1347.358 -1324.417)"/></g><g id="Layer_4" data-name="Layer 4"><path class="cls-3" d="M1358,1582.333l53.5-31.167s21.333,51.167,88.5,53.333v58.833l-58.667-60.667Z" transform="translate(-1347.358 -1324.417)"/></g><g id="Layer_5" data-name="Layer 5"><path class="cls-5" d="M1500,1604.5v58.833l59.167-61,82.5-20.5-52-31.167S1565,1603.667,1500,1604.5Z" transform="translate(-1347.358 -1324.417)"/></g><g id="Layer_7" data-name="Layer 7"><path class="cls-4" d="M1642.75,1418l-55,32s-25.07-51.617-87.75-51.667V1335l58.25,61.75Z" transform="translate(-1347.358 -1324.417)"/></g><g id="Layer_8" data-name="Layer 8"><ellipse class="cls-6" cx="153.286" cy="172.927" rx="101.085" ry="99.962"/></g><g id="Layer_9" data-name="Layer 9"><circle class="cls-7" cx="152.33" cy="174.521" r="81.187"/></g><g id="Layer_18" data-name="Layer 18"><path class="cls-8" d="M1465,1544.167v9.917s1.333,5.667,6.583,5.75,58.417,0,58.417,0,5-1.417,5-5.75v-9.917s32.917-11.75,32.917-48.583-32-65.75-66.083-65.75-69.667,24.454-69.917,65.019C1431.917,1494.852,1426.667,1525.083,1465,1544.167Z" transform="translate(-1347.358 -1324.417)"/></g><g id="Layer_10" data-name="Layer 10"><path class="cls-2" d="M1458.938,1449.063s5.75-6.812,21-7.625,12.75,14.25,12.75,14.25.75,12.063-20.75,21.438c0,0-13.25,5.438-22-5.062C1449.938,1472.063,1442.313,1463.313,1458.938,1449.063Z" transform="translate(-1347.358 -1324.417)"/></g><g id="Layer_11" data-name="Layer 11"><circle class="cls-9" cx="122.163" cy="184.854" r="20.354"/></g><g id="Layer_11_copy" data-name="Layer 11 copy"><circle class="cls-9" cx="184.58" cy="184.854" r="20.354"/></g><g id="Layer_13" data-name="Layer 13"><polygon class="cls-9" points="152.924 192.521 143.142 209.402 162.705 209.402 152.924 192.521"/></g><g id="Layer_14" data-name="Layer 14"><path class="cls-9" d="M1495.226,1495.342s-2.732,3.921-10.662-4.538c0,0-9.385-7.138-5.155-11.764s10.442,3.569,10.442,3.569S1500.337,1490.364,1495.226,1495.342Z" transform="translate(-1347.358 -1324.417)"/></g><g id="Layer_16" data-name="Layer 16"><polygon class="cls-9" points="140.114 155.674 145.647 161.019 137.267 162.083 138.767 158.021 140.114 155.674"/></g><g id="Layer_14_copy" data-name="Layer 14 copy"><path class="cls-9" d="M1505.343,1495.342s2.732,3.921,10.662-4.538c0,0,9.385-7.138,5.155-11.764s-10.442,3.569-10.442,3.569S1500.232,1490.364,1505.343,1495.342Z" transform="translate(-1347.358 -1324.417)"/></g><g id="Layer_17" data-name="Layer 17"><polygon class="cls-9" points="161.228 160.008 166.218 155.266 166.218 160.458 161.705 161.271 161.228 160.008"/></g><g id="Layer_22" data-name="Layer 22"><polygon class="cls-1" points="22.809 175.167 0.148 255.126 28.017 182.792 29.226 172.927 22.809 175.167"/></g><g id="Layer_23" data-name="Layer 23"><path class="cls-1" d="M1493.966,1326.119s1.94-1.7,6.034-1.7c0,0,4.484.135,5.917,1.667s-7.834,3.764-7.834,3.764Z" transform="translate(-1347.358 -1324.417)"/></g></svg>